<svg xmlns="http://www.w3.org/2000/svg" xmlns:xlink="http://www.w3.org/1999/xlink" viewBox="0 0 256 257">
  <defs>
    <linearGradient id="a" x1="-.8%" x2="57.6%" y1="7.7%" y2="78.4%">
      <stop offset="0%" stop-color="#41D1FF"/>
      <stop offset="100%" stop-color="#BD34FE"/>
    </linearGradient>
    <linearGradient id="b" x1="43.4%" x2="50.3%" y1="2.2%" y2="89%">
      <stop offset="0%" stop-color="#FFBD4F"/>
      <stop offset="100%" stop-color="#FF980E"/>
    </linearGradient>
  </defs>
  <path fill="url(#a)" d="M255 37.5 134.8 231.2a9.3 9.3 0 0 1-16.2-.2L.5 37.6a9.3 9.3 0 0 1 10.5-13.1l120 22a9 9 0 0 0 3.3 0l115-22a9.3 9.3 0 0 1 10.8 13z"/>
  <path fill="url(#b)" d="M185.2 0 101 17a5.5 5.5 0 0 0-4.5 5.2l-5.1 89.5a5.5 5.5 0 0 0 6.7 5.7l24.7-5.4a5.5 5.5 0 0 1 6.6 6.7l-7.3 36a5.5 5.5 0 0 0 7 6.6l15.2-4.7a5.5 5.5 0 0 1 7 6.5l-11.5 53.6c-.8 3.6 4 5.6 5.8 2.4l1.3-2.2 71-114a5.5 5.5 0 0 0-5.1-8.4l-25.5 2.2a5.5 5.5 0 0 1-5.8-7l17-52.3a5.5 5.5 0 0 0-5.8-7L185.2 0z"/>
</svg>
